<?xml version="1.0" encoding="utf-8"?>
<!-- Generator: Adobe Illustrator 24.0.0, SVG Export Plug-In . SVG Version: 6.00 Build 0)  -->
<svg version="1.1" id="Capa_1" xmlns="http://www.w3.org/2000/svg" xmlns:xlink="http://www.w3.org/1999/xlink" x="0px" y="0px"
	 viewBox="0 0 1888.5 571.4" style="enable-background:new 0 0 1888.5 571.4;" xml:space="preserve">
<style type="text/css">
	.st0{fill-rule:evenodd;clip-rule:evenodd;fill:#FFFFFF;}
	.st1{fill-rule:evenodd;clip-rule:evenodd;fill:url(#SVGID_1_);}
</style>
<g id="Capa_2_1_">
</g>
<g id="Capa_1_1_">
	<g>
		<polygon class="st0" points="-14,313.3 8.8,295.7 48.9,270.5 88.3,289.6 115.5,320.2 171.2,280.7 233.8,255.6 265,232.5 
			307.2,209.4 350,160.4 402.4,121.7 426.5,134.6 440.1,150.9 503.6,116.2 533.6,111.1 590.7,70 625,57.4 660.3,24.8 700.1,0 
			717.4,35.3 764.3,83.3 817.7,111.1 844.2,148.2 877.8,171 903.7,149.5 935.3,140 957.7,123.7 981.5,143.4 999.9,168.6 
			1029.1,185.6 1057.6,169.9 1089.6,137.3 1116.8,121.7 1137.9,93.8 1158.9,73.4 1196,116.2 1256.8,170.6 1283.3,216.2 1313.2,242 
			1332.9,283.1 1345.9,286.2 1362.2,314 1395.8,302.2 1420,275 1457.8,251.6 1473.7,228.4 1502.2,206.6 1536.2,254.9 1574.9,288.9 
			1618.1,302.8 1640.9,333.8 1670.8,361.3 1684.4,388.1 1702.1,402.8 1725.2,378.6 1762.9,357.6 1818.3,401.7 1848.5,446.6 
			1873.7,453.1 1899.2,484 1906.4,487.8 1906.4,586.3 -14,586.3 		"/>
		
			<linearGradient id="SVGID_1_" gradientUnits="userSpaceOnUse" x1="902.7002" y1="1027.8" x2="902.7002" y2="506" gradientTransform="matrix(1 0 0 1 0 -506)">
			<stop  offset="0" style="stop-color:#EEF3F6"/>
			<stop  offset="1" style="stop-color:#C6D7E1"/>
		</linearGradient>
		<path class="st1" d="M632.1,263.7l-11.6,9.5l-5.4,7.5l-6.1,8.8l12.9-2l4.1-12.2l11.6-8.8l6.8-12.2L632.1,263.7L632.1,263.7z
			 M1088.3,354l5.9-27.6l-1.1-15.2l8-19.5l3.7-21l-5.9-19.9l3.7-22.7l13.6-10.7l5.6,9.1l30.3-26.4l-0.3-35l10.3-21.3l-6.8-7.1
			l9.5-12.6l11.2-8.2l-8.7-8.6l-6.2-10.8l-4.1-10.2l2-12.9l37,42.8l60.8,54.4l26.5,45.5l29.9,25.8l19.7,41.1l12.9,3.1l16.3,27.9
			l7.1,20.1l26.2,27.9l9.9,14.6l12.7,9l15.9,19.7l2.1,9.4l-5.9-5.9l-7.1,0.7l-6.1,8.1l-7.8-9.3l-12.6,5.3l-1.5,10.7l-11.5-3.4
			l-3.1-18.4l1.9-13.4l-4.8-14l-8.4-11.9l-3.6,3.7l-0.7,8.4l-2.4-7.3l-4.2-14.7l-20.6-27.5l-2.5,18.1l-10,11.3l-3.1,7.4l-10.8,2
			l0.2,7.6l10.5,3.3l7.9,8.5l5.2,0.5l0.4,11.5l7.6,10.1l15.2,11.3l7.7,9l6.1,8.9l-11.5,3l-5.4,11.1l-7.4,4.3l-5.4,5.8l-3-2l-5.6,0.9
			l3.9-8l-9-4.5l1-4.5l-12.6-0.5l-4.7-6.6l-12.6-10.8l-12.6,13.8l5.3-32.5l6.6-16.5l5.6-11.8l-1.3-21.1l2-2.1l2.4-6.4l-1.9-4.1
			l1-3.2l4.6-4.5l6.9-7.8l-7.9-0.9l-4.6,2.4l-3,7.9l-0.5-8.5l4.2-8.2l6.3-1.7l-6.6-3.2l-4.6,1.1l-2.6,16.7l-0.3,28.5l-2.6,25.8
			l-12.9,24l-2.8,25.4l0.6,20l-14.9-5.1l-7.5-11.6l-17.4-1l15.4,20.9l-5.6,9.1l12.7,25.7l-18.4-18.4l-11-16l-2.7-18.2l-7.6-10.1
			l-15.5-3.1l-8.2-8l-10.2,0.9l-9.5-17.8l-27.1-0.2l-29.3-33.3l-26.5-5l-1.3-1.4l-5.4-1.5l-6.7,3.5l-6.5-4.4l-10.3,9.1l-1.5-10.8
			l4-2.1v-3.9l-12.3,3.7l-7.9-5.7l-0.5-7.6l-5.1-2.5l-2.6-5.4l2.9-4.5l-5.9-3.2l-7.8-11.9l3.6,17l-2.3,5.8l5.3,7l5.9,7.5l2.7,8
			l-7.7-8.4h-4.5l4.5,7.3l-0.6,13.5l-8.5-6.9l-14.2-17.5l-2.9-7.9l-8.9-12.5l-8.1-8.9l-6-10.2l-4.8,3.6l2.2-5.9l3.8-1.1l3.8-6l-5-1
			l6.6-1.8l-0.3-2.1l-8.2,0.7l0.3-4.5l-3.6-1.8l-3.7,6.8l1.3-8.4l-3.8-10.3l-9.7,1.9l-3.1,7.3l-6.6,2.1l-5.7,7.5l-6.3,2.5l-1.4,6.2
			l-3.7,0.9l-0.2-6.7l-4.8,0.4l-4.2,4.9l-3.9,11.8l1-10.4l4-8.1l4.8-1.3l1.1-5.7l-1.6-1.3l2.7-6.5l3.6-5.1l3.5-1.6l-0.1-8.4l5.4,0.2
			l1.5-2.5l2.7,0.8l2.6-2.2l0.6,5l3-0.8l3.3-5l6-4l2.7-12.7l-10.1-8.5l1.5,10.3l-3.9,8l-6.3,5.4l-6.8-1.5l4.6-1.3l-2-3.2l4.4-4.8
			l0.5,2.9l2.4-1l2.1-11.5l-4.9-7.5l-8,15.1l-1.7,10.6l-3,4.7l-1.2-6.5l-5.3-3.7l-2.5,4.8l-0.2,6.3l-2.8,7l0.8,16l-4.1,9.1l-6.1,2.9
			L917,310l-0.3,7.4l-2.7-6.8l4.4-9.6l-3.2-2.9l-1.4-6.5l-4.2-2l4-1.5l-0.2-9.5l-4.1-1.4l2.7-2.1l-2.4-3.5l-4.8,0.3l1.3-6.9l3.2-0.7
			l-0.4-3.8l-4.2-1.5l6.6-6.4l12.1-0.5l7.1-2.4l11.2,0.9l-0.7-4.5l-10.4-1.3l-11,1l7.2-9.5l4.5-15.5l12.2-13.6l10.6-10l-7.2-0.9
			l5.6-5.7l3.7,4.3l8.6-6.8l-0.8-6.9l4.3-9.8l6.1-1l-0.8-10.8l-7.3-2l3.7-13.7l-13-19.7l23.8,19.7l18.4,25.1l29.2,17l-3.8,16.3
			l2.4,20.3l-5.4,5.8l-0.3,30.6l12.9,32.3l-0.3,20.3l5.8,8l11,10.5l15.3,11.8l1.1,3.2l8.9,1l4,6.8L1088.3,354L1088.3,354z
			 M1788.6,494.3l-12.7,2.7l0.2-9.6l-0.6-7.4l-4.9,10.8l-4.6,4.7l-0.5-16l-5.7-4.9l0.3,8.8l-4.6,4.5l3.5,8.3l12,11.7l7.6,13.9
			l-6.2-5.4l-9-10.1l-5.5,0.6l-8.1-2.8l-16.1,0.3l-24.6-28.3l-0.7-9.2l-3.4-2.9l-7,7.8l-3.4,1l7.1-7.7l1.5-7.2l-3-14.4l-3.6-6.7
			l0.7-5.6l-7.4-9.8l-6.2,1.8l-6.1-8l-3,11.5l-11.6,3.6l-6.8,6.3l7.5-13.8l6-0.3l2.6-9.1l-6.4-12.2l-6.5,1.4l1.3-5.3l-5.8-1.1
			l-12,5.6l-11.2,11l-15.2,1.8l13.1-5.1l6-6.7l3.2-6.8l6.3-5.9l5.9-0.9l-6.1-11.2l-13.5-13.1l-9.1,7.3l-13.4-1.8l11.1-3.1l6.2-7.4
			l-10-7l-15.8,1.5l-13.1,6l-22.7-5.7l-20.4-3.6l-18.5-18.3l12.8,8l14.9,0.9l23-6.6l10.4-8.3l-10.2-17.2l-24.8-12.3l-18.5-26.3
			l-17.1-10.4l-14.5-35.5l0.5-18.5l0,0l34,48.3l38.7,34l43.2,13.9l22.8,30.9l29.9,27.5l13.6,26.9l17.7,14.6l16.4,13.9l-5.2,0.7
			l-11.3-8.6l1.5,5.6l4.7,7.6l7.3,8.5l5.2,10.4l1.3-8.3l3.5,7.1l9.3,9.5l11.8-1.2l13.8,7l4.1,10.6l3.9-5.4l3.4,6.1l11.9,10.1l6.5,12
			 M1598.4,336.5l5.1,0.7l2-4.1l1.4,4.1l5.8-0.7l-4.4-2.4l-0.7-2.7l3.1-1.4l4.4,4.4l10.2-1l-2-4.8l6.1-2l-2-5.1l-5.1-1.4l-0.3-4.8
			l-6.8-3.1l-4.1-4.4l0.3,7.8l-2,8.2l-7.1,4.4L1598.4,336.5L1598.4,336.5z M696,55.4l9.9-2.7L696,36l6.1-6.1l-9.5-13.3L700.1,0
			l17.3,35.3l46.9,47.9l53.4,27.9l26.5,37l33.6,22.8l2.7,39.8l10.5,31.9l0.7,27.2l9.5,27.2l-6.8,8.3l-0.2,27.1l-3.8,20.7l6.5,41.8
			l-14.3-15.3l-11.9-16.9L852,324.6l-1.8-25.4l-7.1,16.6l-3,19.8l0.3,19.1l-5.4,11.1v13.7l-12.7-10.8l-5.8,2.2l-13.6-24.5l-6.2-6.8
			l6.4,17.9l6.1,17L792.8,363l-11.5-17.1l0.2-16.5l4.7-4.2l-0.9-11.1l-6.3,6l-0.5-12l5.1-5.8l-7.1-6.8l-3.8,6.3l-1.7,9l-6.2-7.8
			l-4.7-1.6l4.7-4.5l-1-7l-8.2-1.9l-8.5-11.1l-0.2,12.8l-10.6-5l-8.9-9.4l4.8,10.9l-1.9,12.2l4.7,12.9l-15.6-16.4l-15.9-24.3
			l-4.7,5.9l-0.1,8.5l-8.4-14l-10.1-6.9l18.9-21.2l9.1-15.1l12.8-12.7l4.8-11.5l8.2-3.9l1.2-13.7l11.5-14.4l2.6-23.8l7.5-17.8
			l11.6-12.5l-1-17.2l4.2-9.9l-12-7.2l-16.4-9.7l-16.6-2.3l-15.6,2l-1.8,5.7l-15.9,7.6l-7.8-6.2l-8.2,6.5l-3.7,6.2l-3.4-7.5
			l11.2-8.6l-3.9-3.6L684,62l8.5-0.2L696,55.4L696,55.4z M549.9,119.3l1.4,6.1l4.4,3.1l0.1,4.2l4.4,0.3l-4.9,2l-7.3,3.3l-3,5.7
			l2.9,5l-3.8,6.5l2.4,9.2l-4.3,7.8l7.3-1.3l3.6,0.1l0.9-4.5l4.5,0.2l3.7-1.6l1,7.4l-1.4,5.8l-4.7,1.8l-4.3,8.2l-2.4,6.8l-3.2,0.7
			l-0.4,5.8l-5.7,4.2l8.7-2.1l11-6.2l4.8-6.9l6.8-2.2l6.8-6.5l-4.5,6.6l-6.9,3.5l0.7,5.8l5.9-0.4l6,1.5l4.6-7.8l3.9-3.4l5.5-10.2
			l4.5-7.9l8.2-4.8l5.1-9.2l6.8-1.7v-7.5l6.8-6.1l1.5-6.6l3.2-5.6l1.9,8.6l5.9-5.8l5.1-2.1l-1.4,8.5l-4.1,6.8l-7,10.2l2.9,9.9
			l-8.1,7.1l-6.1,10.2l7.8-0.7l10.9,1.3l14.7-0.6l20-7.2l-18.1,9.7l-25.8,3.9l-12.8,3.9l-1.9,5.2l-1.5-6.6l-2,2.4l-4.1-3.4l-6.1,1
			l-1.7,6.8v6.5l-3.4,4.1l-0.3-3.4l-4.4-1l-5.4,4.8l-2.4,8.8l-10.2,3.1v5.1l-6.1,0.3l-6.5,8.2l-6.8,2.4H540l-4.8-5.4l-0.3,4.4
			l3.4,4.8l6.8-0.3l3.1,2.4l-4.8,1.7l-0.3,4.8l-6.1,2.7l-5.8-1.4l1-4.4l-5.4-5.4L522,242l-1.7,7.8l1.7,7.5l-2.7,7.8l-2,4.1l-6.1,5.1
			l1,6.8l-1.7,8.8l2.4,4.1l-1.7,8.5l-2,6.5l-4.8,3.4l-8.8,2l-4.4,7.5l-9.5,1.7l-6.5,6.1l0.7-12.2l0.3-10.5l-1.4-6.5l2.7-4.1
			l-0.3-8.2l3.1-5.8l1-8.2l1,3.7l4.4,5.1l6.8-0.7l-1.4-7.1l1.4-7.5l6.5-5.4l-2-5.4l3.7-2l2.7-8.8l3.4-8.2l5.8-1.7l1.7-7.8l-2.9-5.9
			l-5.3,1.9l-0.2,3.6l5.4,1l1.4,2.7l-10,0.2l-3.9,5.6l-1,6.1l-2.9,5.8l-4.4-1l-6.3,1l3.9-4.4l3.6-4.3l-0.5-3.6v-5.8l-3.7,5.3
			l-4.1,1.4l5.6-9.5l3.6-4.9l-2-1.2l-5.4,2.7l1.4-4.8l4.1-4.1l1,5.4l3.7,0.7h5.8l4.4-7.1l3.4-4.1l-3.1-2l-2-4.4h3.4l0.7-4.4
			l-0.7-8.2l-3.7-1.4l-2.7,1.4l1.7-7.5l4.4-4.4l5.4-0.7l0.7-5.4l3.1-4.8l3.4-5.4l4.4-3.1l1-5.8h3.7l4.8-1.4l-3.7-1l-2-2.7l2.4-2.7
			l6.1-3.1l5.8-0.3l0.7-5.1l-3.1-1.4l-1.7-3.7l5.1,1l1.7-4.8l1.7-6.1l-1.4-5.4L549.9,119.3L549.9,119.3z M167.7,358.4l12.9-11.1
			l2.9-8.5l5.9-11.5l9.6-2.7l4.3-7.5l8.9-8.6l11.1-8.3l7.3-5.8l-8.1,9.5l-7.1,10.7l4.8,1.7l10.3-0.3l7.7-4.4l-1.9,4.6l-6.7,3.4h-8.4
			l-4,2.5l-0.9,4.3l-4.8,0.4l-8.8,4.6l-2.8,5.2l1,7.3l6.8,4.1l1.2,3.8l9,5.3h13.9l9.4-5.4l5.6-6.9l8.5-7.2l10,0.2l6.7,2.5l6.9,1.3
			l-2.2,3.1l-9.3-1.1l-13.9-1l-4.8,4.7l-5.4,10.5l-4.4,5.8l0.4,3.7l5.2-0.5l3.2-0.8l-1.4-2.8l1.3-4.8l2.3-0.1l0.2,4.7l6,4.8l3.3-0.2
			l0.7,4l2.5,5l0.5,6.3l6.7,0.3l5.3-1.9l4.9-4.8l10.9-4.4l4.2-7l1.1-12l6.3-8.5l13.5-1l2.1,8.7l8.5,5.9l4.2-1.7l0.1-9.8l2.1-9.9
			l8.2-6.5l14.2-4.8l-17,12.1l-2.8,7.5l-0.1,17.4l2.2,15.2l-0.5,9.7l-6.1,5.2l-4.5,5.3l-3.6,8.2l-2.1,11.6l4.9-11.5l4.3-6.4l6.4-2.6
			l5.9-4.2l12.4-4.3l-4.4-3.4l-1.1-5.8l-7.9-15.5l21.4-4.5l16.9,5.5l18.7-3.4l-17-3l-8.6-9.8l-14.1-7.2l15.2-0.8l18.7,8L406,361
			l14.2,1.4L408,345.1l-4.1-13.4l-14.5-11.2l12.1-12.5l7.6-2.1l14.6-18.4l15.9,0.4l0.9-11l5-1.7l3.8-18.1l10.1-14.6l-2.1-5l-4.1,1
			l-6.8-5.2l7.5-9.2l1.6-5.5l-7.8-6.8l-0.1-3.4L464,205l6-6.9l8-14.1l-1.3-6.1l3.3-9.3l5-3.6l0.5-6.5l5.1-2l9.9-10.1l1.2-3.2
			l-3.3-0.2l0.1-2.6l7-7.5l-6.8,0.6l-8.9,7.2l-4.4,8.5l-1.6,5.7l-4.6,1.5l-1.4,4.2l-4.7,1.6l-0.9,5.1l3.6,1.4l-1,5.7H469l-7.5,1.3
			l-3.4,2.4l-5.1-2.6l0.5-5.5l-5.9-0.4l-3.1-5.4l1.6,10.9l5.8,9.3l5.7,2.4l5.6-2l3.1-5.5l3.9-0.1l2.6,4.9l-8.7,9.4l-9.6,3.3
			l-0.5-2.4l-3.2-1.4l-0.7-3.9l-3.7,0.3l-0.9,5.6l-2.4,0.1l-1-4.8l0.3-9.1l-5.8-12.2l-1-12.9l4.4-5.1l-13.6-16.3l-24.1-12.9
			l-8.8,20.4l10.2,11.2L373.1,185l-0.6,13.8l-34.8,23.6l-18.5,2.9l3.1,6.6l-7.4,8.4L287,251.5l-17.7,10.8L257,272.4l-13.6,17.9
			l-9.3-0.1l7.7-10.2l5.2-0.6l5.8-7.1l9.4-9.3l10.3-8.2l11.3-6.5l13-8.9l0.4-4.9l-2.1-3.1l-4-0.1l1.9,2.2v3.6l-6.7,2l0.3-5.6
			l-8.2,1.4l-6.1,3.4l0.6,3.7l11.1-2.5l-3.6,3l-5.9,1.5l-2.5,1.7l-0.6-3.2l-3.4-3.2l-6.3,5.7l6.9,1l-0.2,3.4l0.9,5.6l-9.4,5.5
			l-1-2.1l4.6-5l-0.4-3.3l-13.2,0.5l3,1.9l-0.3,2.3l-3.6,0.6l-3.4,2l7.1,1.2l-7.9,5.4l-1.7,5.1l-7.1,1.3l-6.6,7.9l-1.5-1.5l-0.3-3.9
			l-12.3,8.1l-5,7l-8.8,4.3l-1.8,3.7l-9,2.6l-3.9,7.8l-3.8,8.7l-9.1,7l-8.5,13.6l-1.7,9.2l-15.6,12.2l8.4-0.1l4.7-3.1L167.7,358.4
			L167.7,358.4z M51.9,292l-5.8-13.3l2.7-8.2l39.4,19l27.2,30.6l-18.1,15.1l-17.5,20.7l-8.8,7.9l-6.8,3.2l-0.3,5.3l-2.6-4.9l5.9-4.2
			L72,354l4.7-1.2l1-5.4l-2.7-3.3l-1.7,5.6l-4.5,3l-5,5.5l-2.7,3.6l-9.5,2.6l-6.3,3.5l3.4,4.4l15.8,1.5l2.5,4.8l-6.4-2.4l-12.5,0.5
			L37,377.5l-5.4,1.7l-8.8,1.7l-7.6,8.3l2.4-10.3l7.1-8.9l10.4-4.2l7.6-7.9l3.4-6l3.3-11.6l10.8-3.7l-2.3-3.6l0.4-13l4.1-5.8
			l-1.8,6.8l2.2,7.4l6.3,7.7l9.7,0.4l1.1-1.3l-1.4-5.5l3.6,2.8l3.7-3.2l-1.5-10.1l-4.7-4.2l-4.3-9l-8.1-8L51.9,292z"/>
	</g>
</g>
</svg>
