<?xml version="1.0" encoding="utf-8"?>
<!-- Generator: Adobe Illustrator 24.0.0, SVG Export Plug-In . SVG Version: 6.00 Build 0)  -->
<svg version="1.1" id="Capa_1" xmlns="http://www.w3.org/2000/svg" xmlns:xlink="http://www.w3.org/1999/xlink" x="0px" y="0px"
	 viewBox="0 0 789.6 113.8" style="enable-background:new 0 0 789.6 113.8;" xml:space="preserve">
<style type="text/css">
	.st0{fill:none;stroke:#DBDBDB;stroke-width:8;stroke-miterlimit:10;}
	.st1{fill:#DBDBDB;}
</style>
<g>
	<path class="st0" d="M53.2,4.2L53.2,4.2L4.4,21L12,84.4l41.2,22.8l0,0l41-22.5l7.6-63.3L53.2,4.2z"/>
	<g>
		<g>
			<circle class="st1" cx="29.9" cy="48" r="5.2"/>
			<circle class="st1" cx="76.2" cy="48" r="5.2"/>
		</g>
		<path class="st1" d="M42.1,58.2c0.3,5.8,5,10.5,10.9,10.5S63.8,64,64,58.2H42.1z"/>
	</g>
</g>
<g>
	<path class="st0" d="M395,6.2L395,6.2L346.1,23l7.6,63.3l41.2,22.8l0,0l41-22.5l7.6-63.3L395,6.2z"/>
	<g>
		<path class="st1" d="M410.9,43.9c-2-2-4.7-3.1-7.6-3.1c-2.9,0-5.6,1.1-7.6,3.1l-1.1,1.1l-1.1-1.1c-2-2-4.7-3.2-7.6-3.2
			c-2.9,0-5.6,1.1-7.6,3.1c-2,2-3.1,4.7-3.1,7.6c0,2.9,1.1,5.6,3.2,7.6l15.4,15.4c0.2,0.2,0.5,0.3,0.8,0.3c0.3,0,0.6-0.1,0.8-0.3
			l15.5-15.4c2-2,3.1-4.7,3.1-7.6C414,48.6,412.9,45.9,410.9,43.9z"/>
	</g>
</g>
<g>
	<path class="st0" d="M736.7,6.2L736.7,6.2L687.8,23l7.6,63.3l41.2,22.8l0,0l41-22.5l7.6-63.3L736.7,6.2z"/>
	<g>
		<path class="st1" d="M746.3,43h-37.7c-2.4,0-4.3-1.9-4.3-4.3v0c0-2.4,1.9-4.3,4.3-4.3h37.7c2.4,0,4.3,1.9,4.3,4.3v0
			C750.6,41,748.7,43,746.3,43z"/>
		<path class="st1" d="M720,55.7h-11.3c-2.4,0-4.3-1.9-4.3-4.3v0c0-2.4,1.9-4.3,4.3-4.3H720c2.4,0,4.3,1.9,4.3,4.3v0
			C724.3,53.7,722.3,55.7,720,55.7z"/>
		<path class="st1" d="M764.4,55.7h-32.7c-2.4,0-4.3-1.9-4.3-4.3v0c0-2.4,1.9-4.3,4.3-4.3h32.7c2.4,0,4.3,1.9,4.3,4.3v0
			C768.8,53.7,766.8,55.7,764.4,55.7z"/>
		<path class="st1" d="M734.9,68.4h-25.4c-2.4,0-4.3-1.9-4.3-4.3v0c0-2.4,1.9-4.3,4.3-4.3h25.4c2.4,0,4.3,1.9,4.3,4.3v0
			C739.3,66.4,737.3,68.4,734.9,68.4z"/>
		<path class="st1" d="M753.6,68.4h-5.9c-2.4,0-4.3-1.9-4.3-4.3v0c0-2.4,1.9-4.3,4.3-4.3h5.9c2.4,0,4.3,1.9,4.3,4.3v0
			C757.9,66.4,755.9,68.4,753.6,68.4z"/>
		<path class="st1" d="M764.4,81.1H710c-2.4,0-4.3-1.9-4.3-4.3v0c0-2.4,1.9-4.3,4.3-4.3h54.5c2.4,0,4.3,1.9,4.3,4.3v0
			C768.8,79.2,766.8,81.1,764.4,81.1z"/>
	</g>
</g>
</svg>
